<?xml version="1.0" encoding="UTF-8" standalone="no"?><svg xmlns="http://www.w3.org/2000/svg" xmlns:xlink="http://www.w3.org/1999/xlink" contentScriptType="application/ecmascript" contentStyleType="text/css" height="494px" preserveAspectRatio="none" style="width:948px;height:494px;" version="1.1" viewBox="0 0 948 494" width="948px" zoomAndPan="magnify"><defs/><g><line style="stroke: #000000; stroke-width: 1.7;" x1="10" x2="10" y1="10" y2="463.625"/><line style="stroke: #000000; stroke-width: 1.7;" x1="929" x2="929" y1="10" y2="463.625"/><line style="stroke: #AAAAAA; stroke-width: 0.5; stroke-dasharray: 3.0,5.0;" x1="24" x2="24" y1="10" y2="463.625"/><line style="stroke: #AAAAAA; stroke-width: 0.5; stroke-dasharray: 3.0,5.0;" x1="174" x2="174" y1="10" y2="463.625"/><line style="stroke: #AAAAAA; stroke-width: 0.5; stroke-dasharray: 3.0,5.0;" x1="324" x2="324" y1="10" y2="463.625"/><line style="stroke: #AAAAAA; stroke-width: 0.5; stroke-dasharray: 3.0,5.0;" x1="474" x2="474" y1="10" y2="463.625"/><line style="stroke: #AAAAAA; stroke-width: 0.5; stroke-dasharray: 3.0,5.0;" x1="624" x2="624" y1="10" y2="463.625"/><line style="stroke: #AAAAAA; stroke-width: 0.5; stroke-dasharray: 3.0,5.0;" x1="774" x2="774" y1="10" y2="463.625"/><line style="stroke: #AAAAAA; stroke-width: 0.5; stroke-dasharray: 3.0,5.0;" x1="924" x2="924" y1="10" y2="463.625"/><text fill="#000000" font-family="sans-serif" font-size="12" lengthAdjust="spacingAndGlyphs" textLength="60" x="15" y="21.1387">adapt_we</text><line style="stroke: #000000; stroke-width: 1.0;" x1="10" x2="76" y1="24.9688" y2="24.9688"/><line style="stroke: #000000; stroke-width: 1.0;" x1="76" x2="86" y1="24.9688" y2="10"/><line style="stroke: #038048; stroke-width: 1.5;" x1="24" x2="69" y1="57.9375" y2="57.9375"/><line style="stroke: #038048; stroke-width: 1.5;" x1="69" x2="699" y1="37.9375" y2="37.9375"/><line style="stroke: #038048; stroke-width: 1.5;" x1="699" x2="924" y1="57.9375" y2="57.9375"/><line style="stroke: #038048; stroke-width: 1.5;" x1="69" x2="69" y1="37.9375" y2="57.9375"/><line style="stroke: #038048; stroke-width: 1.5;" x1="699" x2="699" y1="37.9375" y2="57.9375"/><text fill="#000000" font-family="sans-serif" font-size="12" lengthAdjust="spacingAndGlyphs" textLength="6" x="15" y="55.1074">L</text><text fill="#000000" font-family="sans-serif" font-size="12" lengthAdjust="spacingAndGlyphs" textLength="9" x="15" y="35.1074">H</text><line style="stroke: #000000; stroke-width: 1.7;" x1="10" x2="929" y1="10" y2="10"/><text fill="#000000" font-family="sans-serif" font-size="12" lengthAdjust="spacingAndGlyphs" textLength="88" x="15" y="99.0762">adapt_we_ack</text><line style="stroke: #000000; stroke-width: 1.0;" x1="10" x2="104" y1="102.9063" y2="102.9063"/><line style="stroke: #000000; stroke-width: 1.0;" x1="104" x2="114" y1="102.9063" y2="87.9375"/><line style="stroke: #038048; stroke-width: 1.5;" x1="24" x2="624" y1="135.875" y2="135.875"/><line style="stroke: #038048; stroke-width: 1.5;" x1="624" x2="774" y1="115.875" y2="115.875"/><line style="stroke: #038048; stroke-width: 1.5;" x1="774" x2="924" y1="135.875" y2="135.875"/><line style="stroke: #038048; stroke-width: 1.5;" x1="624" x2="624" y1="115.875" y2="135.875"/><line style="stroke: #038048; stroke-width: 1.5;" x1="774" x2="774" y1="115.875" y2="135.875"/><text fill="#000000" font-family="sans-serif" font-size="12" lengthAdjust="spacingAndGlyphs" textLength="6" x="15" y="133.0449">L</text><text fill="#000000" font-family="sans-serif" font-size="12" lengthAdjust="spacingAndGlyphs" textLength="9" x="15" y="113.0449">H</text><line style="stroke: #000000; stroke-width: 1.7;" x1="10" x2="929" y1="87.9375" y2="87.9375"/><text fill="#000000" font-family="sans-serif" font-size="12" lengthAdjust="spacingAndGlyphs" textLength="74" x="15" y="177.0137">adapt_push</text><line style="stroke: #000000; stroke-width: 1.0;" x1="10" x2="90" y1="180.8438" y2="180.8438"/><line style="stroke: #000000; stroke-width: 1.0;" x1="90" x2="100" y1="180.8438" y2="165.875"/><line style="stroke: #038048; stroke-width: 1.5;" x1="24" x2="99" y1="213.8125" y2="213.8125"/><line style="stroke: #038048; stroke-width: 1.5;" x1="99" x2="699" y1="193.8125" y2="193.8125"/><line style="stroke: #038048; stroke-width: 1.5;" x1="699" x2="924" y1="213.8125" y2="213.8125"/><line style="stroke: #038048; stroke-width: 1.5;" x1="99" x2="99" y1="193.8125" y2="213.8125"/><line style="stroke: #038048; stroke-width: 1.5;" x1="699" x2="699" y1="193.8125" y2="213.8125"/><line style="stroke: #FF0000; stroke-width: 1.5;" x1="99" x2="624" y1="183.8125" y2="183.8125"/><polygon fill="#FF0000" points="106.5175,181.0763,106.5175,186.5487,99,183.8125" style="stroke: #FF0000; stroke-width: 1.5;"/><polygon fill="#FF0000" points="616.4825,186.5487,616.4825,181.0763,624,183.8125" style="stroke: #FF0000; stroke-width: 1.5;"/><text fill="#000000" font-family="Serif" font-size="14" lengthAdjust="spacingAndGlyphs" textLength="142" x="290.5" y="175.5107">{Adapt wait for UL}</text><text fill="#000000" font-family="sans-serif" font-size="12" lengthAdjust="spacingAndGlyphs" textLength="6" x="15" y="210.9824">L</text><text fill="#000000" font-family="sans-serif" font-size="12" lengthAdjust="spacingAndGlyphs" textLength="9" x="15" y="190.9824">H</text><line style="stroke: #000000; stroke-width: 1.7;" x1="10" x2="929" y1="165.875" y2="165.875"/><text fill="#000000" font-family="sans-serif" font-size="12" lengthAdjust="spacingAndGlyphs" textLength="33" x="15" y="254.9512">state</text><line style="stroke: #000000; stroke-width: 1.0;" x1="10" x2="49" y1="258.7813" y2="258.7813"/><line style="stroke: #000000; stroke-width: 1.0;" x1="49" x2="59" y1="258.7813" y2="243.8125"/><polygon fill="#D7E0F2" points="36,265.75,162,265.75,174,277.75,162,289.75,36,289.75,24,277.75" style="stroke: #038048; stroke-width: 1.5;"/><polygon fill="#D7E0F2" points="186,265.75,312,265.75,324,277.75,312,289.75,186,289.75,174,277.75" style="stroke: #038048; stroke-width: 1.5;"/><polygon fill="#D7E0F2" points="336,265.75,612,265.75,624,277.75,612,289.75,336,289.75,324,277.75" style="stroke: #038048; stroke-width: 1.5;"/><polygon fill="#D7E0F2" points="636,265.75,762,265.75,774,277.75,762,289.75,636,289.75,624,277.75" style="stroke: #038048; stroke-width: 1.5;"/><polygon fill="#D7E0F2" points="786,265.75,924,265.75,924,289.75,786,289.75,774,277.75" style="stroke: #D7E0F2; stroke-width: 1.5;"/><path d="M924,265.75 L786,265.75 L774,277.75 L786,289.75 L924,289.75 " fill="#D7E0F2" style="stroke: #038048; stroke-width: 1.5;"/><text fill="#000000" font-family="sans-serif" font-size="12" lengthAdjust="spacingAndGlyphs" textLength="22" x="88" y="281.9043">idle</text><text fill="#000000" font-family="sans-serif" font-size="12" lengthAdjust="spacingAndGlyphs" textLength="97" x="200.5" y="281.9043">push_calc_addr</text><text fill="#000000" font-family="sans-serif" font-size="12" lengthAdjust="spacingAndGlyphs" textLength="114" x="417" y="281.9043">push_before_mem</text><text fill="#000000" font-family="sans-serif" font-size="12" lengthAdjust="spacingAndGlyphs" textLength="103" x="647.5" y="281.9043">push_after_mem</text><text fill="#000000" font-family="sans-serif" font-size="12" lengthAdjust="spacingAndGlyphs" textLength="22" x="786" y="281.9043">idle</text><line style="stroke: #000000; stroke-width: 1.7;" x1="10" x2="929" y1="243.8125" y2="243.8125"/><text fill="#000000" font-family="sans-serif" font-size="12" lengthAdjust="spacingAndGlyphs" textLength="53" x="15" y="318.8887">mem_we</text><line style="stroke: #000000; stroke-width: 1.0;" x1="10" x2="69" y1="322.7188" y2="322.7188"/><line style="stroke: #000000; stroke-width: 1.0;" x1="69" x2="79" y1="322.7188" y2="307.75"/><line style="stroke: #038048; stroke-width: 1.5;" x1="24" x2="324" y1="355.6875" y2="355.6875"/><line style="stroke: #038048; stroke-width: 1.5;" x1="324" x2="924" y1="335.6875" y2="335.6875"/><line style="stroke: #038048; stroke-width: 1.5;" x1="324" x2="324" y1="335.6875" y2="355.6875"/><text fill="#000000" font-family="sans-serif" font-size="12" lengthAdjust="spacingAndGlyphs" textLength="6" x="15" y="352.8574">L</text><text fill="#000000" font-family="sans-serif" font-size="12" lengthAdjust="spacingAndGlyphs" textLength="9" x="15" y="332.8574">H</text><line style="stroke: #000000; stroke-width: 1.7;" x1="10" x2="929" y1="307.75" y2="307.75"/><text fill="#000000" font-family="sans-serif" font-size="12" lengthAdjust="spacingAndGlyphs" textLength="81" x="15" y="396.8262">mem_we_ack</text><line style="stroke: #000000; stroke-width: 1.0;" x1="10" x2="97" y1="400.6563" y2="400.6563"/><line style="stroke: #000000; stroke-width: 1.0;" x1="97" x2="107" y1="400.6563" y2="385.6875"/><line style="stroke: #038048; stroke-width: 1.5;" x1="24" x2="549" y1="433.625" y2="433.625"/><line style="stroke: #038048; stroke-width: 1.5;" x1="549" x2="924" y1="413.625" y2="413.625"/><line style="stroke: #038048; stroke-width: 1.5;" x1="549" x2="549" y1="413.625" y2="433.625"/><line style="stroke: #FF0000; stroke-width: 1.5;" x1="324" x2="549" y1="423.625" y2="423.625"/><polygon fill="#FF0000" points="331.5175,420.8888,331.5175,426.3612,324,423.625" style="stroke: #FF0000; stroke-width: 1.5;"/><polygon fill="#FF0000" points="541.4825,426.3612,541.4825,420.8888,549,423.625" style="stroke: #FF0000; stroke-width: 1.5;"/><text fill="#000000" font-family="Serif" font-size="14" lengthAdjust="spacingAndGlyphs" textLength="138" x="367.5" y="415.3232">{UL wait for MEM}</text><text fill="#000000" font-family="sans-serif" font-size="12" lengthAdjust="spacingAndGlyphs" textLength="6" x="15" y="430.7949">L</text><text fill="#000000" font-family="sans-serif" font-size="12" lengthAdjust="spacingAndGlyphs" textLength="9" x="15" y="410.7949">H</text><line style="stroke: #000000; stroke-width: 1.7;" x1="10" x2="929" y1="385.6875" y2="385.6875"/><line style="stroke: #000000; stroke-width: 2.0;" x1="24" x2="24" y1="463.625" y2="468.625"/><line style="stroke: #000000; stroke-width: 2.0;" x1="174" x2="174" y1="463.625" y2="468.625"/><line style="stroke: #000000; stroke-width: 2.0;" x1="324" x2="324" y1="463.625" y2="468.625"/><line style="stroke: #000000; stroke-width: 2.0;" x1="474" x2="474" y1="463.625" y2="468.625"/><line style="stroke: #000000; stroke-width: 2.0;" x1="624" x2="624" y1="463.625" y2="468.625"/><line style="stroke: #000000; stroke-width: 2.0;" x1="774" x2="774" y1="463.625" y2="468.625"/><line style="stroke: #000000; stroke-width: 2.0;" x1="924" x2="924" y1="463.625" y2="468.625"/><line style="stroke: #000000; stroke-width: 2.0;" x1="24" x2="924" y1="463.625" y2="463.625"/><text fill="#000000" font-family="sans-serif" font-size="12" lengthAdjust="spacingAndGlyphs" textLength="8" x="20" y="480.7637">0</text><text fill="#000000" font-family="sans-serif" font-size="12" lengthAdjust="spacingAndGlyphs" textLength="24" x="162" y="480.7637">100</text><text fill="#000000" font-family="sans-serif" font-size="12" lengthAdjust="spacingAndGlyphs" textLength="24" x="312" y="480.7637">200</text><text fill="#000000" font-family="sans-serif" font-size="12" lengthAdjust="spacingAndGlyphs" textLength="24" x="462" y="480.7637">300</text><text fill="#000000" font-family="sans-serif" font-size="12" lengthAdjust="spacingAndGlyphs" textLength="24" x="612" y="480.7637">400</text><text fill="#000000" font-family="sans-serif" font-size="12" lengthAdjust="spacingAndGlyphs" textLength="24" x="762" y="480.7637">500</text><text fill="#000000" font-family="sans-serif" font-size="12" lengthAdjust="spacingAndGlyphs" textLength="24" x="912" y="480.7637">600</text><line style="stroke: #0000FF; stroke-width: 1.0;" x1="99" x2="174" y1="213.8125" y2="277.75"/><polygon fill="#0000FF" points="166.5041,274.9552,170.0542,270.7908,174,277.75" style="stroke: #0000FF; stroke-width: 1.0;"/><text fill="#0000FF" font-family="Serif" font-size="14" lengthAdjust="spacingAndGlyphs" textLength="168" x="168.2792" y="269.5712">Push operation initiated</text><line style="stroke: #0000FF; stroke-width: 1.0;" x1="549" x2="624" y1="413.625" y2="277.75"/><polygon fill="#0000FF" points="622.7626,285.6537,617.9717,283.0092,624,277.75" style="stroke: #0000FF; stroke-width: 1.0;"/><text fill="#0000FF" font-family="Serif" font-size="14" lengthAdjust="spacingAndGlyphs" textLength="134" x="620.3672" y="297.3266">Mem read the data</text><line style="stroke: #0000FF; stroke-width: 1.0;" x1="624" x2="699" y1="115.875" y2="57.9375"/><polygon fill="#0000FF" points="694.7235,64.6986,691.3781,60.3679,699,57.9375" style="stroke: #0000FF; stroke-width: 1.0;"/><text fill="#0000FF" font-family="Serif" font-size="14" lengthAdjust="spacingAndGlyphs" textLength="184" x="693.0508" y="75.5284">Push operation completed</text><line style="stroke: #0000FF; stroke-width: 1.0;" x1="624" x2="699" y1="135.875" y2="193.8125"/><polygon fill="#0000FF" points="691.3781,191.3821,694.7235,187.0514,699,193.8125" style="stroke: #0000FF; stroke-width: 1.0;"/><text fill="#0000FF" font-family="Serif" font-size="14" lengthAdjust="spacingAndGlyphs" textLength="184" x="693.0508" y="185.915">Push operation completed</text><!--
@startuml
robust "adapt_we" as AWE
robust "adapt_we_ack" as AWEACK
robust "adapt_push" as AP
concise "state" as ST
robust "mem_we" as MWE
robust "mem_we_ack" as MWEACK

scale 100 as 150 pixels


@0
AWE is L
AWEACK is L
AP is L
ST is idle
MWE is L
MWEACK is L

@30
AWE is H

@50
AP is H
AP -> ST@+50 : Push operation initiated

@100
ST is push_calc_addr

@200
MWE is H
ST is push_before_mem

@350
MWEACK is H
MWEACK -> ST@+50 : Mem read the data

@400
ST is push_after_mem
AWEACK is H
AWEACK -> AWE@+50 : Push operation completed
AWEACK -> AP@+50 : Push operation completed

@450
AWE is L
AP is L

@500
AWEACK is L
ST is idle

@MWEACK
@200 <-> @+150 : {UL wait for MEM}

@AP
@50 <-> @400 : {Adapt wait for UL}
@enduml

PlantUML version 1.2019.05beta2(Unknown compile time)
(GPL source distribution)
Java Runtime: Java(TM) SE Runtime Environment
JVM: Java HotSpot(TM) 64-Bit Server VM
Java Version: 1.7.0_25-b15
Operating System: Linux
Default Encoding: UTF-8
Language: en
Country: US
--></g></svg>